# xmcd
#
# Track frame offsets:
#	150
#	15472
#	32556
#	60393
#	77855
#	91020
#	110189
#	131961
#	140266
#	153483
#	169822
#	184154
#	194216
#	211391
#	225300
#
# Disc length: 3251 seconds
#
# Revision: 1
# Processed by: cddbd v1.4PL0 Copyright (c) Steve Scherf et al.
# Submitted via: audiograbber 1.81.03
#
DISCID=cb0cb10f
DTITLE=Silver King Band - Blues - Shuck and Jive
DYEAR=1994
DGENRE=Blues
TTITLE0=Boogie at Midnite
TTITLE1=Monkey Hips and Rice
TTITLE2=Memphis Blues
TTITLE3=Anywhere You Go
TTITLE4=The Tampa Grind
TTITLE5=Suitcase Blues
TTITLE6=Cry On
TTITLE7=I'm The Cat
TTITLE8=Dat Ain't No Lie
TTITLE9=I Ain't
TTITLE10=You Ain't Invited
TTITLE11=The Waitress Song
TTITLE12=Cindy Lea
TTITLE13=Be Baba Leba
TTITLE14=Ice Cream Freezer
EXTD=
EXTT0=
EXTT1=
EXTT2=
EXTT3=
EXTT4=
EXTT5=
EXTT6=
EXTT7=
EXTT8=
EXTT9=
EXTT10=
EXTT11=
EXTT12=
EXTT13=
EXTT14=
PLAYORDER=
